<svg xmlns="http://www.w3.org/2000/svg" width="50" height="50" viewBox="0 0 50 50">
  <defs>
    <clipPath id="clip-path">
      <rect id="Rectangle_4792" data-name="Rectangle 4792" width="50" height="50" transform="translate(-11229 2724)" fill="#fff" stroke="#707070" stroke-width="1"/>
    </clipPath>
  </defs>
  <g id="Group_6290" data-name="Group 6290" transform="translate(11441 -2873)">
    <g id="Mask_Group_576" data-name="Mask Group 576" transform="translate(-212 149)" clip-path="url(#clip-path)">
      <g id="Group_6283" data-name="Group 6283" transform="translate(34 -25.916)">
        <g id="prescription_2_" data-name="prescription (2)" transform="translate(-11256 2750.916)">
          <g id="Group_6270" data-name="Group 6270" transform="translate(0)">
            <path id="Path_57349" data-name="Path 57349" d="M99.419,10.209,89.5.292A.989.989,0,0,0,88.8,0H67.968A3.972,3.972,0,0,0,64,3.968V43.647a3.972,3.972,0,0,0,3.968,3.968H95.743a3.972,3.972,0,0,0,3.968-3.968V10.912A.989.989,0,0,0,99.419,10.209ZM72.928,41.663A2.976,2.976,0,1,1,75.9,38.687,2.979,2.979,0,0,1,72.928,41.663Zm0-9.92A2.976,2.976,0,1,1,75.9,28.767,2.979,2.979,0,0,1,72.928,31.743Zm19.84,7.936h-11.9a.992.992,0,0,1,0-1.984h11.9a.992.992,0,1,1,0,1.984Zm0-9.92h-11.9a.992.992,0,0,1,0-1.984h11.9a.992.992,0,1,1,0,1.984ZM91.775,9.92a1.986,1.986,0,0,1-1.984-1.984V3.387L96.325,9.92Z" transform="translate(-64)" fill="#06a101"/>
          </g>
        </g>
      </g>
    </g>
    <path id="Path_57359" data-name="Path 57359" d="M5.927,0a5.927,5.927,0,1,0,5.927,5.927A5.934,5.934,0,0,0,5.927,0ZM9.239,4.367,5.451,8.125a.583.583,0,0,1-.817.015L2.629,6.313a.6.6,0,0,1-.045-.832.588.588,0,0,1,.832-.03L5.006,6.907,8.393,3.52a.6.6,0,0,1,.847.847Z" transform="translate(-11430.158 2880.696)" fill="#fff"/>
  </g>
</svg>
