<svg id="remove" xmlns="http://www.w3.org/2000/svg" width="50" height="50" viewBox="0 0 50 50">
  <path id="Path_57089" data-name="Path 57089" d="M25,0A25,25,0,1,0,50,25,25.028,25.028,0,0,0,25,0Zm0,0" fill="#b80000"/>
  <path id="Path_57090" data-name="Path 57090" d="M174.849,171.848a2.122,2.122,0,1,1-3,3l-6.377-6.377-6.377,6.377a2.122,2.122,0,0,1-3-3l6.377-6.377-6.377-6.377a2.122,2.122,0,0,1,3-3l6.377,6.377,6.377-6.377a2.122,2.122,0,0,1,3,3l-6.377,6.377Zm0,0" transform="translate(-140.595 -140.595)" fill="#fafafa"/>
</svg>
