<svg xmlns="http://www.w3.org/2000/svg" width="50" height="50" viewBox="0 0 50 50">
  <defs>
    <clipPath id="clip-path">
      <rect id="Rectangle_4681" data-name="Rectangle 4681" width="50" height="50" fill="#fff" stroke="#707070" stroke-width="1"/>
    </clipPath>
  </defs>
  <g id="Mask_Group_530" data-name="Mask Group 530" clip-path="url(#clip-path)">
    <g id="Group_5953" data-name="Group 5953" transform="translate(1 2)">
      <g id="pharmacy">
        <g id="Group_5929" data-name="Group 5929">
          <g id="Group_5928" data-name="Group 5928">
            <path id="Path_57043" data-name="Path 57043" d="M46.786,37.39,24.98,21.531a1.809,1.809,0,0,0-2.379,0L.794,37.39c-1.586.991-.595,3.568,1.189,3.568H5.949V62.765a1.873,1.873,0,0,0,1.982,1.982H39.649c1.189,0,2.084-2.7,2.084-2.7l-.1-21.092H45.6C47.381,40.959,48.372,38.381,46.786,37.39Zm-23,23.392A11.894,11.894,0,1,1,35.685,48.888,11.929,11.929,0,0,1,23.79,60.783Z" transform="translate(0 -21.085)" fill="#119ba5"/>
          </g>
        </g>
        <g id="Group_5931" data-name="Group 5931" transform="translate(14.87 18.882)">
          <g id="Group_5930" data-name="Group 5930">
            <path id="Path_57044" data-name="Path 57044" d="M171.912,230.232v-5.947h-5.947v5.947h-5.947v5.947h5.947v5.947h5.947v-5.947h5.947v-5.947Z" transform="translate(-160.018 -224.285)" fill="#119ba5"/>
          </g>
        </g>
      </g>
      <path id="truck" d="M19.294,101.993c-.065-.014-.126-.026-.18-.041-.616-.16-.9-.248-1.1-.649l-.787-1.594a1.8,1.8,0,0,0-1.456-.886h-1.4V96.983a.6.6,0,0,0-.6-.6L4,96.394a.567.567,0,0,0-.564.595v.544H.937a.937.937,0,0,0,0,1.873h2.5v.9H1.8a.937.937,0,1,0,0,1.873H3.437v.9H2.663a.937.937,0,0,0,0,1.873h.774v.939a.6.6,0,0,0,.6.6H5.052a2.245,2.245,0,0,0,4.442,0H13.6l.065,0a2.245,2.245,0,0,0,4.442,0H19.57a1.042,1.042,0,0,0,1.041-1.041v-1.767C20.611,102.27,19.818,102.1,19.294,101.993Zm-3.4,3.351a.816.816,0,1,1-.816.816A.817.817,0,0,1,15.89,105.344Zm-1.527-3.478V99.693h1.071a1.392,1.392,0,0,1,1.108.673l.7,1.418c.015.029.03.056.046.082ZM8.089,106.16a.816.816,0,1,1-.816-.816A.817.817,0,0,1,8.089,106.16Z" transform="translate(27.954 -60.876)" fill="#74dce3"/>
    </g>
  </g>
</svg>
