<svg xmlns="http://www.w3.org/2000/svg" width="50" height="50" viewBox="0 0 50 50">
  <defs>
    <clipPath id="clip-path">
      <rect id="Rectangle_4682" data-name="Rectangle 4682" width="50" height="50" fill="#fff" stroke="#707070" stroke-width="1"/>
    </clipPath>
  </defs>
  <g id="Mask_Group_529" data-name="Mask Group 529" clip-path="url(#clip-path)">
    <g id="Group_5950" data-name="Group 5950" transform="translate(2 2)">
      <g id="pharmacy">
        <g id="Group_5929" data-name="Group 5929">
          <g id="Group_5928" data-name="Group 5928">
            <path id="Path_57043" data-name="Path 57043" d="M45.864,37.069,24.487,21.522a1.773,1.773,0,0,0-2.332,0L.779,37.069c-1.555.972-.583,3.5,1.166,3.5H5.831V61.944a1.836,1.836,0,0,0,1.943,1.943H38.868a1.836,1.836,0,0,0,1.943-1.943V40.567H44.7C46.447,40.567,47.419,38.041,45.864,37.069ZM23.321,60a11.66,11.66,0,1,1,11.66-11.66A11.694,11.694,0,0,1,23.321,60Z" transform="translate(0 -21.085)" fill="#f1d965"/>
          </g>
        </g>
        <g id="Group_5931" data-name="Group 5931" transform="translate(14.577 18.51)">
          <g id="Group_5930" data-name="Group 5930">
            <path id="Path_57044" data-name="Path 57044" d="M171.678,230.115v-5.83h-5.83v5.83h-5.83v5.83h5.83v5.83h5.83v-5.83h5.83v-5.83Z" transform="translate(-160.018 -224.285)" fill="#f1d965"/>
          </g>
        </g>
      </g>
      <g id="dollar" transform="translate(29.72 28.229)">
        <path id="Path_57033" data-name="Path 57033" d="M14.442,2.478A8.46,8.46,0,0,0,2.478,14.442,8.46,8.46,0,0,0,14.442,2.478ZM8.46,7.931a2.379,2.379,0,0,1,.65,4.668.166.166,0,0,0-.122.159V13.2a.539.539,0,0,1-.5.543.529.529,0,0,1-.554-.528v-.461A.166.166,0,0,0,7.81,12.6a2.383,2.383,0,0,1-1.729-2.274.537.537,0,0,1,.513-.543.529.529,0,0,1,.544.529A1.322,1.322,0,1,0,8.46,8.989a2.379,2.379,0,0,1-.65-4.668.166.166,0,0,0,.122-.159V3.716a.539.539,0,0,1,.5-.543.529.529,0,0,1,.554.528v.461a.166.166,0,0,0,.121.159A2.383,2.383,0,0,1,10.84,6.595a.537.537,0,0,1-.513.543.529.529,0,0,1-.544-.529A1.322,1.322,0,1,0,8.46,7.931Z" transform="translate(0 0)" fill="#e9c517"/>
      </g>
    </g>
  </g>
</svg>
