<svg xmlns="http://www.w3.org/2000/svg" width="26.669" height="42.551" viewBox="0 0 26.669 42.551">
  <defs>
    <clipPath id="clip-path">
      <rect id="Rectangle_407" data-name="Rectangle 407" width="21.715" height="42.168" transform="translate(0 0)" fill="#009989"/>
    </clipPath>
    <clipPath id="clip-path-2">
      <path id="Path_200" data-name="Path 200" d="M1319.33,5423.378l2.211-8.562,8.814,3.281,5.182,9.23.972,5.668-.486,6.883-9.878-2.672-.648-6.963-2.51-3.562Z" transform="translate(-1319.33 -5414.816)" fill="#fff" stroke="#707070" stroke-width="1"/>
    </clipPath>
  </defs>
  <g id="Group_1683" data-name="Group 1683" transform="translate(-1243 -5414.816)">
    <g id="Mask_Group_12" data-name="Mask Group 12" transform="translate(1243 5415.199)" clip-path="url(#clip-path)">
      <path id="Subtraction_6" data-name="Subtraction 6" d="M21.336,42.168A21.326,21.326,0,0,1,6.249,35.993a20.908,20.908,0,0,1,0-29.817,21.518,21.518,0,0,1,30.174,0,20.908,20.908,0,0,1,0,29.817A21.326,21.326,0,0,1,21.336,42.168ZM21.1,8.086a13,13,0,1,0,13,13A13.014,13.014,0,0,0,21.1,8.086Z" transform="translate(-22.725 0)" fill="#009989"/>
    </g>
    <g id="Mask_Group_13" data-name="Mask Group 13" transform="translate(1252.49 5414.816)" clip-path="url(#clip-path-2)">
      <path id="Subtraction_7" data-name="Subtraction 7" d="M19.443,38.633a19.709,19.709,0,0,1-3.918-.392,19.421,19.421,0,0,1-14-11.405A19.128,19.128,0,0,1,.4,23.209a19.38,19.38,0,0,1,0-7.786A19.144,19.144,0,0,1,3.32,8.516,19.444,19.444,0,0,1,15.524.392a19.758,19.758,0,0,1,7.837,0,19.421,19.421,0,0,1,14,11.405,19.127,19.127,0,0,1,1.133,3.626,19.38,19.38,0,0,1,0,7.786,19.144,19.144,0,0,1-2.925,6.907,19.444,19.444,0,0,1-12.2,8.124A19.71,19.71,0,0,1,19.443,38.633Zm-3.864-31.8A13.914,13.914,0,1,0,29.662,20.745,14.015,14.015,0,0,0,15.579,6.832Z" transform="translate(-21.863 -0.122)" fill="#8dc63f"/>
    </g>
  </g>
</svg>
